<mxfile host="app.diagrams.net" modified="2024-02-25T16:45:33.125Z" agent="Mozilla/5.0 (Windows NT 10.0; Win64; x64) AppleWebKit/537.36 (KHTML, like Gecko) Chrome/121.0.0.0 Safari/537.36 OPR/107.0.0.0" etag="DTTl6fyVFMIVYyagsyWQ" version="23.1.6" type="github">
  <diagram id="R2lEEEUBdFMjLlhIrx00" name="Page-1">
    <mxGraphModel dx="2509" dy="1226" grid="1" gridSize="10" guides="1" tooltips="1" connect="1" arrows="1" fold="1" page="1" pageScale="1" pageWidth="850" pageHeight="1100" math="0" shadow="0" extFonts="Permanent Marker^https://fonts.googleapis.com/css?family=Permanent+Marker">
      <root>
        <mxCell id="0" />
        <mxCell id="1" parent="0" />
        <mxCell id="HUy4sEP3kdTLL6iSXE6q-1" value="SUCURSAL" style="rounded=0;whiteSpace=wrap;html=1;" vertex="1" parent="1">
          <mxGeometry x="360" y="410" width="120" height="60" as="geometry" />
        </mxCell>
        <mxCell id="HUy4sEP3kdTLL6iSXE6q-2" value="Tiene" style="rhombus;whiteSpace=wrap;html=1;" vertex="1" parent="1">
          <mxGeometry x="560" y="400" width="80" height="80" as="geometry" />
        </mxCell>
        <mxCell id="HUy4sEP3kdTLL6iSXE6q-3" value="EMPLEADOS" style="rounded=0;whiteSpace=wrap;html=1;" vertex="1" parent="1">
          <mxGeometry x="720" y="410" width="120" height="60" as="geometry" />
        </mxCell>
        <mxCell id="HUy4sEP3kdTLL6iSXE6q-4" value="" style="endArrow=none;html=1;rounded=0;exitX=1;exitY=0.5;exitDx=0;exitDy=0;entryX=0;entryY=0.5;entryDx=0;entryDy=0;" edge="1" parent="1" source="HUy4sEP3kdTLL6iSXE6q-1" target="HUy4sEP3kdTLL6iSXE6q-2">
          <mxGeometry width="50" height="50" relative="1" as="geometry">
            <mxPoint x="400" y="470" as="sourcePoint" />
            <mxPoint x="560" y="490" as="targetPoint" />
          </mxGeometry>
        </mxCell>
        <mxCell id="HUy4sEP3kdTLL6iSXE6q-5" value="" style="endArrow=none;html=1;rounded=0;exitX=1;exitY=0.5;exitDx=0;exitDy=0;entryX=0;entryY=0.5;entryDx=0;entryDy=0;" edge="1" parent="1" source="HUy4sEP3kdTLL6iSXE6q-2" target="HUy4sEP3kdTLL6iSXE6q-3">
          <mxGeometry width="50" height="50" relative="1" as="geometry">
            <mxPoint x="490" y="450" as="sourcePoint" />
            <mxPoint x="570" y="450" as="targetPoint" />
          </mxGeometry>
        </mxCell>
        <mxCell id="HUy4sEP3kdTLL6iSXE6q-6" value="Publica" style="rhombus;whiteSpace=wrap;html=1;" vertex="1" parent="1">
          <mxGeometry x="380" y="540" width="80" height="80" as="geometry" />
        </mxCell>
        <mxCell id="HUy4sEP3kdTLL6iSXE6q-7" value="" style="endArrow=none;html=1;rounded=0;exitX=0.5;exitY=0;exitDx=0;exitDy=0;entryX=0.5;entryY=1;entryDx=0;entryDy=0;" edge="1" parent="1" source="HUy4sEP3kdTLL6iSXE6q-6" target="HUy4sEP3kdTLL6iSXE6q-1">
          <mxGeometry width="50" height="50" relative="1" as="geometry">
            <mxPoint x="480" y="590" as="sourcePoint" />
            <mxPoint x="530" y="540" as="targetPoint" />
          </mxGeometry>
        </mxCell>
        <mxCell id="HUy4sEP3kdTLL6iSXE6q-8" value="REVISTA" style="rounded=0;whiteSpace=wrap;html=1;" vertex="1" parent="1">
          <mxGeometry x="360" y="690" width="120" height="60" as="geometry" />
        </mxCell>
        <mxCell id="HUy4sEP3kdTLL6iSXE6q-9" value="" style="endArrow=none;html=1;rounded=0;entryX=0.5;entryY=1;entryDx=0;entryDy=0;exitX=0.5;exitY=0;exitDx=0;exitDy=0;" edge="1" parent="1" source="HUy4sEP3kdTLL6iSXE6q-8" target="HUy4sEP3kdTLL6iSXE6q-6">
          <mxGeometry width="50" height="50" relative="1" as="geometry">
            <mxPoint x="480" y="590" as="sourcePoint" />
            <mxPoint x="530" y="540" as="targetPoint" />
          </mxGeometry>
        </mxCell>
        <mxCell id="HUy4sEP3kdTLL6iSXE6q-10" value="" style="endArrow=none;html=1;rounded=0;entryX=0;entryY=0.5;entryDx=0;entryDy=0;exitX=1;exitY=0.5;exitDx=0;exitDy=0;" edge="1" parent="1" source="HUy4sEP3kdTLL6iSXE6q-8" target="HUy4sEP3kdTLL6iSXE6q-11">
          <mxGeometry width="50" height="50" relative="1" as="geometry">
            <mxPoint x="490" y="750" as="sourcePoint" />
            <mxPoint x="540" y="700" as="targetPoint" />
          </mxGeometry>
        </mxCell>
        <mxCell id="HUy4sEP3kdTLL6iSXE6q-11" value="Contiene" style="rhombus;whiteSpace=wrap;html=1;" vertex="1" parent="1">
          <mxGeometry x="570" y="680" width="80" height="80" as="geometry" />
        </mxCell>
        <mxCell id="HUy4sEP3kdTLL6iSXE6q-12" value="ARTICULO" style="rounded=0;whiteSpace=wrap;html=1;" vertex="1" parent="1">
          <mxGeometry x="740" y="690" width="120" height="60" as="geometry" />
        </mxCell>
        <mxCell id="HUy4sEP3kdTLL6iSXE6q-13" value="" style="endArrow=none;html=1;rounded=0;entryX=0;entryY=0.5;entryDx=0;entryDy=0;exitX=1;exitY=0.5;exitDx=0;exitDy=0;" edge="1" parent="1" source="HUy4sEP3kdTLL6iSXE6q-11" target="HUy4sEP3kdTLL6iSXE6q-12">
          <mxGeometry width="50" height="50" relative="1" as="geometry">
            <mxPoint x="490" y="730" as="sourcePoint" />
            <mxPoint x="580" y="730" as="targetPoint" />
          </mxGeometry>
        </mxCell>
        <mxCell id="HUy4sEP3kdTLL6iSXE6q-14" value="PERIODISTA" style="rounded=0;whiteSpace=wrap;html=1;" vertex="1" parent="1">
          <mxGeometry x="1120" y="690" width="120" height="60" as="geometry" />
        </mxCell>
        <mxCell id="HUy4sEP3kdTLL6iSXE6q-15" value="Escribe" style="rhombus;whiteSpace=wrap;html=1;" vertex="1" parent="1">
          <mxGeometry x="950" y="680" width="80" height="80" as="geometry" />
        </mxCell>
        <mxCell id="HUy4sEP3kdTLL6iSXE6q-19" value="" style="endArrow=none;html=1;rounded=0;exitX=1;exitY=0.5;exitDx=0;exitDy=0;" edge="1" parent="1" source="HUy4sEP3kdTLL6iSXE6q-12" target="HUy4sEP3kdTLL6iSXE6q-15">
          <mxGeometry width="50" height="50" relative="1" as="geometry">
            <mxPoint x="1030" y="750" as="sourcePoint" />
            <mxPoint x="1080" y="700" as="targetPoint" />
          </mxGeometry>
        </mxCell>
        <mxCell id="HUy4sEP3kdTLL6iSXE6q-20" value="" style="endArrow=none;html=1;rounded=0;exitX=1;exitY=0.5;exitDx=0;exitDy=0;entryX=0;entryY=0.5;entryDx=0;entryDy=0;" edge="1" parent="1" source="HUy4sEP3kdTLL6iSXE6q-15" target="HUy4sEP3kdTLL6iSXE6q-14">
          <mxGeometry width="50" height="50" relative="1" as="geometry">
            <mxPoint x="870" y="730" as="sourcePoint" />
            <mxPoint x="960" y="730" as="targetPoint" />
          </mxGeometry>
        </mxCell>
        <mxCell id="HUy4sEP3kdTLL6iSXE6q-21" value="NIF" style="ellipse;whiteSpace=wrap;html=1;align=center;fontStyle=4;" vertex="1" parent="1">
          <mxGeometry x="940" y="335" width="100" height="40" as="geometry" />
        </mxCell>
        <mxCell id="HUy4sEP3kdTLL6iSXE6q-22" value="nombre" style="ellipse;whiteSpace=wrap;html=1;align=center;" vertex="1" parent="1">
          <mxGeometry x="940" y="395" width="100" height="40" as="geometry" />
        </mxCell>
        <mxCell id="HUy4sEP3kdTLL6iSXE6q-23" value="apellido" style="ellipse;whiteSpace=wrap;html=1;align=center;" vertex="1" parent="1">
          <mxGeometry x="940" y="445" width="100" height="40" as="geometry" />
        </mxCell>
        <mxCell id="HUy4sEP3kdTLL6iSXE6q-24" value="telefono" style="ellipse;whiteSpace=wrap;html=1;align=center;" vertex="1" parent="1">
          <mxGeometry x="940" y="505" width="100" height="40" as="geometry" />
        </mxCell>
        <mxCell id="HUy4sEP3kdTLL6iSXE6q-25" value="" style="endArrow=none;html=1;rounded=0;entryX=0;entryY=0.5;entryDx=0;entryDy=0;exitX=1;exitY=0;exitDx=0;exitDy=0;" edge="1" parent="1" source="HUy4sEP3kdTLL6iSXE6q-3" target="HUy4sEP3kdTLL6iSXE6q-21">
          <mxGeometry relative="1" as="geometry">
            <mxPoint x="790" y="450" as="sourcePoint" />
            <mxPoint x="950" y="450" as="targetPoint" />
          </mxGeometry>
        </mxCell>
        <mxCell id="HUy4sEP3kdTLL6iSXE6q-26" value="" style="endArrow=none;html=1;rounded=0;entryX=0;entryY=0.5;entryDx=0;entryDy=0;exitX=1;exitY=0.25;exitDx=0;exitDy=0;" edge="1" parent="1" source="HUy4sEP3kdTLL6iSXE6q-3" target="HUy4sEP3kdTLL6iSXE6q-22">
          <mxGeometry relative="1" as="geometry">
            <mxPoint x="850" y="420" as="sourcePoint" />
            <mxPoint x="950" y="365" as="targetPoint" />
          </mxGeometry>
        </mxCell>
        <mxCell id="HUy4sEP3kdTLL6iSXE6q-27" value="" style="endArrow=none;html=1;rounded=0;entryX=0;entryY=0.5;entryDx=0;entryDy=0;exitX=1;exitY=0.75;exitDx=0;exitDy=0;" edge="1" parent="1" source="HUy4sEP3kdTLL6iSXE6q-3" target="HUy4sEP3kdTLL6iSXE6q-23">
          <mxGeometry relative="1" as="geometry">
            <mxPoint x="850" y="435" as="sourcePoint" />
            <mxPoint x="950" y="425" as="targetPoint" />
          </mxGeometry>
        </mxCell>
        <mxCell id="HUy4sEP3kdTLL6iSXE6q-28" value="" style="endArrow=none;html=1;rounded=0;entryX=0;entryY=0.5;entryDx=0;entryDy=0;exitX=1;exitY=1;exitDx=0;exitDy=0;" edge="1" parent="1" source="HUy4sEP3kdTLL6iSXE6q-3" target="HUy4sEP3kdTLL6iSXE6q-24">
          <mxGeometry relative="1" as="geometry">
            <mxPoint x="850" y="465" as="sourcePoint" />
            <mxPoint x="950" y="475" as="targetPoint" />
          </mxGeometry>
        </mxCell>
        <mxCell id="HUy4sEP3kdTLL6iSXE6q-30" value="CODIGO" style="ellipse;whiteSpace=wrap;html=1;align=center;fontStyle=4;" vertex="1" parent="1">
          <mxGeometry x="200" y="365" width="100" height="40" as="geometry" />
        </mxCell>
        <mxCell id="HUy4sEP3kdTLL6iSXE6q-31" value="domicilio" style="ellipse;whiteSpace=wrap;html=1;align=center;" vertex="1" parent="1">
          <mxGeometry x="200" y="422.5" width="100" height="40" as="geometry" />
        </mxCell>
        <mxCell id="HUy4sEP3kdTLL6iSXE6q-32" value="telefono" style="ellipse;whiteSpace=wrap;html=1;align=center;" vertex="1" parent="1">
          <mxGeometry x="200" y="475" width="100" height="40" as="geometry" />
        </mxCell>
        <mxCell id="HUy4sEP3kdTLL6iSXE6q-34" value="" style="endArrow=none;html=1;rounded=0;exitX=1;exitY=0.5;exitDx=0;exitDy=0;entryX=0;entryY=0;entryDx=0;entryDy=0;" edge="1" parent="1" source="HUy4sEP3kdTLL6iSXE6q-30" target="HUy4sEP3kdTLL6iSXE6q-1">
          <mxGeometry relative="1" as="geometry">
            <mxPoint x="380" y="400" as="sourcePoint" />
            <mxPoint x="540" y="400" as="targetPoint" />
          </mxGeometry>
        </mxCell>
        <mxCell id="HUy4sEP3kdTLL6iSXE6q-39" value="" style="endArrow=none;html=1;rounded=0;exitX=1;exitY=0.5;exitDx=0;exitDy=0;entryX=0;entryY=0.5;entryDx=0;entryDy=0;" edge="1" parent="1" source="HUy4sEP3kdTLL6iSXE6q-31" target="HUy4sEP3kdTLL6iSXE6q-1">
          <mxGeometry relative="1" as="geometry">
            <mxPoint x="380" y="400" as="sourcePoint" />
            <mxPoint x="540" y="400" as="targetPoint" />
          </mxGeometry>
        </mxCell>
        <mxCell id="HUy4sEP3kdTLL6iSXE6q-40" value="" style="endArrow=none;html=1;rounded=0;exitX=1;exitY=0.5;exitDx=0;exitDy=0;entryX=0;entryY=1;entryDx=0;entryDy=0;" edge="1" parent="1" source="HUy4sEP3kdTLL6iSXE6q-32" target="HUy4sEP3kdTLL6iSXE6q-1">
          <mxGeometry relative="1" as="geometry">
            <mxPoint x="310" y="448" as="sourcePoint" />
            <mxPoint x="370" y="450" as="targetPoint" />
          </mxGeometry>
        </mxCell>
        <mxCell id="HUy4sEP3kdTLL6iSXE6q-41" value="#registro" style="ellipse;whiteSpace=wrap;html=1;align=center;fontStyle=4;" vertex="1" parent="1">
          <mxGeometry x="170" y="660" width="100" height="40" as="geometry" />
        </mxCell>
        <mxCell id="HUy4sEP3kdTLL6iSXE6q-42" value="titulo" style="ellipse;whiteSpace=wrap;html=1;align=center;" vertex="1" parent="1">
          <mxGeometry x="170" y="720" width="100" height="40" as="geometry" />
        </mxCell>
        <mxCell id="HUy4sEP3kdTLL6iSXE6q-43" value="periodicidad" style="ellipse;whiteSpace=wrap;html=1;align=center;" vertex="1" parent="1">
          <mxGeometry x="170" y="780" width="100" height="40" as="geometry" />
        </mxCell>
        <mxCell id="HUy4sEP3kdTLL6iSXE6q-44" value="tipo" style="ellipse;whiteSpace=wrap;html=1;align=center;" vertex="1" parent="1">
          <mxGeometry x="200" y="840" width="100" height="40" as="geometry" />
        </mxCell>
        <mxCell id="HUy4sEP3kdTLL6iSXE6q-46" value="seccion_fija" style="ellipse;shape=doubleEllipse;margin=3;whiteSpace=wrap;html=1;align=center;" vertex="1" parent="1">
          <mxGeometry x="325" y="840" width="100" height="40" as="geometry" />
        </mxCell>
        <mxCell id="HUy4sEP3kdTLL6iSXE6q-47" value="ejemplar" style="ellipse;shape=doubleEllipse;margin=3;whiteSpace=wrap;html=1;align=center;" vertex="1" parent="1">
          <mxGeometry x="460" y="840" width="100" height="40" as="geometry" />
        </mxCell>
        <mxCell id="HUy4sEP3kdTLL6iSXE6q-48" value="" style="endArrow=none;html=1;rounded=0;exitX=1;exitY=0.5;exitDx=0;exitDy=0;entryX=0;entryY=0;entryDx=0;entryDy=0;" edge="1" parent="1" source="HUy4sEP3kdTLL6iSXE6q-41" target="HUy4sEP3kdTLL6iSXE6q-8">
          <mxGeometry relative="1" as="geometry">
            <mxPoint x="380" y="740" as="sourcePoint" />
            <mxPoint x="540" y="740" as="targetPoint" />
          </mxGeometry>
        </mxCell>
        <mxCell id="HUy4sEP3kdTLL6iSXE6q-49" value="" style="endArrow=none;html=1;rounded=0;exitX=1.01;exitY=0.4;exitDx=0;exitDy=0;entryX=0;entryY=0.25;entryDx=0;entryDy=0;exitPerimeter=0;" edge="1" parent="1" source="HUy4sEP3kdTLL6iSXE6q-42" target="HUy4sEP3kdTLL6iSXE6q-8">
          <mxGeometry relative="1" as="geometry">
            <mxPoint x="280" y="690" as="sourcePoint" />
            <mxPoint x="370" y="700" as="targetPoint" />
          </mxGeometry>
        </mxCell>
        <mxCell id="HUy4sEP3kdTLL6iSXE6q-50" value="" style="endArrow=none;html=1;rounded=0;exitX=1;exitY=0.5;exitDx=0;exitDy=0;entryX=0;entryY=0.5;entryDx=0;entryDy=0;" edge="1" parent="1" source="HUy4sEP3kdTLL6iSXE6q-43" target="HUy4sEP3kdTLL6iSXE6q-8">
          <mxGeometry relative="1" as="geometry">
            <mxPoint x="281" y="746" as="sourcePoint" />
            <mxPoint x="370" y="715" as="targetPoint" />
          </mxGeometry>
        </mxCell>
        <mxCell id="HUy4sEP3kdTLL6iSXE6q-51" value="" style="endArrow=none;html=1;rounded=0;exitX=1;exitY=0;exitDx=0;exitDy=0;entryX=0;entryY=1;entryDx=0;entryDy=0;" edge="1" parent="1" source="HUy4sEP3kdTLL6iSXE6q-44" target="HUy4sEP3kdTLL6iSXE6q-8">
          <mxGeometry relative="1" as="geometry">
            <mxPoint x="280" y="810" as="sourcePoint" />
            <mxPoint x="370" y="730" as="targetPoint" />
          </mxGeometry>
        </mxCell>
        <mxCell id="HUy4sEP3kdTLL6iSXE6q-52" value="" style="endArrow=none;html=1;rounded=0;exitX=0.5;exitY=0;exitDx=0;exitDy=0;entryX=0.25;entryY=1;entryDx=0;entryDy=0;" edge="1" parent="1" source="HUy4sEP3kdTLL6iSXE6q-46" target="HUy4sEP3kdTLL6iSXE6q-8">
          <mxGeometry relative="1" as="geometry">
            <mxPoint x="295" y="856" as="sourcePoint" />
            <mxPoint x="370" y="760" as="targetPoint" />
          </mxGeometry>
        </mxCell>
        <mxCell id="HUy4sEP3kdTLL6iSXE6q-53" value="" style="endArrow=none;html=1;rounded=0;exitX=0;exitY=0;exitDx=0;exitDy=0;entryX=0.75;entryY=1;entryDx=0;entryDy=0;" edge="1" parent="1" source="HUy4sEP3kdTLL6iSXE6q-47" target="HUy4sEP3kdTLL6iSXE6q-8">
          <mxGeometry relative="1" as="geometry">
            <mxPoint x="385" y="850" as="sourcePoint" />
            <mxPoint x="400" y="760" as="targetPoint" />
          </mxGeometry>
        </mxCell>
        <mxCell id="HUy4sEP3kdTLL6iSXE6q-54" value="" style="endArrow=none;html=1;rounded=0;entryX=0;entryY=1;entryDx=0;entryDy=0;exitX=0.5;exitY=0;exitDx=0;exitDy=0;" edge="1" parent="1" source="HUy4sEP3kdTLL6iSXE6q-55" target="HUy4sEP3kdTLL6iSXE6q-46">
          <mxGeometry relative="1" as="geometry">
            <mxPoint x="320" y="950" as="sourcePoint" />
            <mxPoint x="540" y="940" as="targetPoint" />
          </mxGeometry>
        </mxCell>
        <mxCell id="HUy4sEP3kdTLL6iSXE6q-55" value="titulo" style="ellipse;whiteSpace=wrap;html=1;align=center;" vertex="1" parent="1">
          <mxGeometry x="260" y="940" width="100" height="40" as="geometry" />
        </mxCell>
        <mxCell id="HUy4sEP3kdTLL6iSXE6q-56" value="extensión" style="ellipse;whiteSpace=wrap;html=1;align=center;" vertex="1" parent="1">
          <mxGeometry x="375" y="940" width="100" height="40" as="geometry" />
        </mxCell>
        <mxCell id="HUy4sEP3kdTLL6iSXE6q-57" value="" style="endArrow=none;html=1;rounded=0;entryX=1;entryY=1;entryDx=0;entryDy=0;exitX=0.5;exitY=0;exitDx=0;exitDy=0;" edge="1" parent="1" source="HUy4sEP3kdTLL6iSXE6q-56" target="HUy4sEP3kdTLL6iSXE6q-46">
          <mxGeometry relative="1" as="geometry">
            <mxPoint x="320" y="950" as="sourcePoint" />
            <mxPoint x="350" y="884" as="targetPoint" />
          </mxGeometry>
        </mxCell>
        <mxCell id="HUy4sEP3kdTLL6iSXE6q-58" value="fecha" style="ellipse;whiteSpace=wrap;html=1;align=center;" vertex="1" parent="1">
          <mxGeometry x="620" y="840" width="100" height="40" as="geometry" />
        </mxCell>
        <mxCell id="HUy4sEP3kdTLL6iSXE6q-59" value="#paginas" style="ellipse;whiteSpace=wrap;html=1;align=center;" vertex="1" parent="1">
          <mxGeometry x="590" y="910" width="100" height="40" as="geometry" />
        </mxCell>
        <mxCell id="HUy4sEP3kdTLL6iSXE6q-60" value="#vendido" style="ellipse;whiteSpace=wrap;html=1;align=center;" vertex="1" parent="1">
          <mxGeometry x="500" y="950" width="100" height="40" as="geometry" />
        </mxCell>
        <mxCell id="HUy4sEP3kdTLL6iSXE6q-61" value="" style="endArrow=none;html=1;rounded=0;entryX=0.5;entryY=1;entryDx=0;entryDy=0;exitX=0;exitY=0;exitDx=0;exitDy=0;" edge="1" parent="1" source="HUy4sEP3kdTLL6iSXE6q-60" target="HUy4sEP3kdTLL6iSXE6q-47">
          <mxGeometry relative="1" as="geometry">
            <mxPoint x="435" y="950" as="sourcePoint" />
            <mxPoint x="420" y="884" as="targetPoint" />
          </mxGeometry>
        </mxCell>
        <mxCell id="HUy4sEP3kdTLL6iSXE6q-62" value="" style="endArrow=none;html=1;rounded=0;entryX=1;entryY=1;entryDx=0;entryDy=0;exitX=0;exitY=0;exitDx=0;exitDy=0;" edge="1" parent="1" source="HUy4sEP3kdTLL6iSXE6q-59" target="HUy4sEP3kdTLL6iSXE6q-47">
          <mxGeometry relative="1" as="geometry">
            <mxPoint x="435" y="950" as="sourcePoint" />
            <mxPoint x="420" y="884" as="targetPoint" />
          </mxGeometry>
        </mxCell>
        <mxCell id="HUy4sEP3kdTLL6iSXE6q-63" value="" style="endArrow=none;html=1;rounded=0;entryX=1;entryY=0.5;entryDx=0;entryDy=0;exitX=0;exitY=0.5;exitDx=0;exitDy=0;" edge="1" parent="1" source="HUy4sEP3kdTLL6iSXE6q-58" target="HUy4sEP3kdTLL6iSXE6q-47">
          <mxGeometry relative="1" as="geometry">
            <mxPoint x="615" y="926" as="sourcePoint" />
            <mxPoint x="555" y="884" as="targetPoint" />
          </mxGeometry>
        </mxCell>
        <mxCell id="HUy4sEP3kdTLL6iSXE6q-65" value="NIF" style="ellipse;whiteSpace=wrap;html=1;align=center;fontStyle=4;" vertex="1" parent="1">
          <mxGeometry x="1340" y="580" width="100" height="40" as="geometry" />
        </mxCell>
        <mxCell id="HUy4sEP3kdTLL6iSXE6q-66" value="nombre" style="ellipse;whiteSpace=wrap;html=1;align=center;" vertex="1" parent="1">
          <mxGeometry x="1340" y="640" width="100" height="40" as="geometry" />
        </mxCell>
        <mxCell id="HUy4sEP3kdTLL6iSXE6q-67" value="apellido" style="ellipse;whiteSpace=wrap;html=1;align=center;" vertex="1" parent="1">
          <mxGeometry x="1340" y="700" width="100" height="40" as="geometry" />
        </mxCell>
        <mxCell id="HUy4sEP3kdTLL6iSXE6q-68" value="telefono" style="ellipse;whiteSpace=wrap;html=1;align=center;" vertex="1" parent="1">
          <mxGeometry x="1340" y="760" width="100" height="40" as="geometry" />
        </mxCell>
        <mxCell id="HUy4sEP3kdTLL6iSXE6q-69" value="especialidad" style="ellipse;whiteSpace=wrap;html=1;align=center;" vertex="1" parent="1">
          <mxGeometry x="1340" y="820" width="100" height="40" as="geometry" />
        </mxCell>
        <mxCell id="HUy4sEP3kdTLL6iSXE6q-70" value="" style="endArrow=none;html=1;rounded=0;exitX=1;exitY=0;exitDx=0;exitDy=0;entryX=0;entryY=0.5;entryDx=0;entryDy=0;" edge="1" parent="1" source="HUy4sEP3kdTLL6iSXE6q-14" target="HUy4sEP3kdTLL6iSXE6q-65">
          <mxGeometry relative="1" as="geometry">
            <mxPoint x="1180" y="620" as="sourcePoint" />
            <mxPoint x="1340" y="620" as="targetPoint" />
          </mxGeometry>
        </mxCell>
        <mxCell id="HUy4sEP3kdTLL6iSXE6q-71" value="" style="endArrow=none;html=1;rounded=0;exitX=1;exitY=0.25;exitDx=0;exitDy=0;entryX=0;entryY=0.5;entryDx=0;entryDy=0;" edge="1" parent="1" source="HUy4sEP3kdTLL6iSXE6q-14" target="HUy4sEP3kdTLL6iSXE6q-66">
          <mxGeometry relative="1" as="geometry">
            <mxPoint x="1250" y="700" as="sourcePoint" />
            <mxPoint x="1360" y="600" as="targetPoint" />
          </mxGeometry>
        </mxCell>
        <mxCell id="HUy4sEP3kdTLL6iSXE6q-72" value="" style="endArrow=none;html=1;rounded=0;exitX=1;exitY=0.5;exitDx=0;exitDy=0;entryX=0;entryY=0.5;entryDx=0;entryDy=0;" edge="1" parent="1" source="HUy4sEP3kdTLL6iSXE6q-14" target="HUy4sEP3kdTLL6iSXE6q-67">
          <mxGeometry relative="1" as="geometry">
            <mxPoint x="1250" y="715" as="sourcePoint" />
            <mxPoint x="1360" y="660" as="targetPoint" />
          </mxGeometry>
        </mxCell>
        <mxCell id="HUy4sEP3kdTLL6iSXE6q-73" value="" style="endArrow=none;html=1;rounded=0;exitX=1;exitY=0.75;exitDx=0;exitDy=0;entryX=0;entryY=0.5;entryDx=0;entryDy=0;" edge="1" parent="1" source="HUy4sEP3kdTLL6iSXE6q-14" target="HUy4sEP3kdTLL6iSXE6q-68">
          <mxGeometry relative="1" as="geometry">
            <mxPoint x="1250" y="730" as="sourcePoint" />
            <mxPoint x="1360" y="710" as="targetPoint" />
          </mxGeometry>
        </mxCell>
        <mxCell id="HUy4sEP3kdTLL6iSXE6q-74" value="" style="endArrow=none;html=1;rounded=0;exitX=1;exitY=1;exitDx=0;exitDy=0;entryX=0;entryY=0.5;entryDx=0;entryDy=0;" edge="1" parent="1" source="HUy4sEP3kdTLL6iSXE6q-14" target="HUy4sEP3kdTLL6iSXE6q-69">
          <mxGeometry relative="1" as="geometry">
            <mxPoint x="1250" y="745" as="sourcePoint" />
            <mxPoint x="1360" y="770" as="targetPoint" />
          </mxGeometry>
        </mxCell>
      </root>
    </mxGraphModel>
  </diagram>
</mxfile>
